<svg height="512" viewBox="0 0 60 60" width="512" xmlns="http://www.w3.org/2000/svg"><g id="013---Separated-Four-Pie-Chart" fill="none"><path id="Path" d="m28 46.821v11.167c.0026331.2848633-.1155124.5575134-.3251611.7503902-.2096486.1928767-.4911821.2879312-.7748389.2616098-13.6587681-1.4496604-24.45033958-12.2412319-25.9-25.9-.02632142-.2836568.06873307-.5651903.26160985-.7748389.19287677-.2096487.46552688-.3277942.75039015-.3251611h11.167c.4948705.0052077.9142993.365562.994.854 1.2002368 6.6042668 6.3687332 11.7727632 12.973 12.973.488438.0797007.8487923.4991295.854.994z" fill="#55cba9"/><path id="Path" d="m28 2.012v11.167c-.0052077.4948705-.365562.9142993-.854.994-6.604407 1.1999691-11.7730309 6.368593-12.973 12.973-.0797007.488438-.4991295.8487923-.994.854h-11.167c-.28486327.0026331-.55751338-.1155124-.75039015-.3251611-.19287678-.2096486-.28793127-.4911821-.26160985-.7748389 1.44966042-13.6587681 12.2412319-24.45033958 25.9-25.9.2836568-.02632142.5651903.06873307.7748389.26160985.2096487.19287677.3277942.46552688.3251611.75039015z" fill="#ae97ec"/><path id="Path" d="m57.988 28h-11.167c-.4948705-.0052077-.9142993-.365562-.994-.854-1.1999691-6.604407-6.368593-11.7730309-12.973-12.973-.488438-.0797007-.8487923-.4991295-.854-.994v-11.167c-.0026331-.28486327.1155124-.55751338.3251611-.75039015.2096486-.19287678.4911821-.28793127.7748389-.26160985 13.6587681 1.44966042 24.4503396 12.2412319 25.9 25.9.0263214.2836568-.0687331.5651903-.2616098.7748389-.1928768.2096487-.4655269.3277942-.7503902.3251611z" fill="#fcd576"/><path id="Path" d="m59 33.1c-1.4496604 13.6587681-12.2412319 24.4503396-25.9 25.9-.2836568.0263214-.5651903-.0687331-.7748389-.2616098-.2096487-.1928768-.3277942-.4655269-.3251611-.7503902v-11.167c.0052077-.4948705.365562-.9142993.854-.994 6.6042668-1.2002368 11.7727632-6.3687332 12.973-12.973.0797007-.488438.4991295-.8487923.994-.854h11.167c.2848633-.0026331.5575134.1155124.7503902.3251611.1928767.2096486.2879312.4911821.2616098.7748389z" fill="#51c0e8"/><g fill="#373737"><path id="Shape" d="m26.8 59.988c.0663879.0077582.1331607.0117646.2.012.4908086-.0008784.9640337-.1828333 1.329-.511.4250679-.3829103.6681318-.9278966.669-1.5v-11.169c-.0071109-.978272-.7138902-1.8109911-1.678-1.977-6.1892671-1.1317409-11.0322768-5.9755469-12.163-12.165-.1660089-.9641098-.998728-1.6708891-1.977-1.678h-11.167c-.57210336.0008682-1.11708971.2439321-1.5.669-.37666578.4172895-.55841558.9748978-.5 1.534 1.53684529 14.1082222 12.6786631 25.2492081 26.787 26.785zm-13.612-26.957c1.2880795 7.0229545 6.7875572 12.5160615 13.812 13.796l.006 11.173c-13.1672633-1.4319358-23.5647516-11.8323362-24.993-25z"/><path id="Shape" d="m2.013 29h11.167c.978272-.0071109 1.8109911-.7138902 1.977-1.678 1.1309935-6.1900429 5.9749571-11.0340065 12.165-12.165.9641098-.1660089 1.6708891-.998728 1.678-1.977v-11.167c-.0008682-.57210336-.2439321-1.11708971-.669-1.5-.4155478-.37766865-.9725748-.55994855-1.531-.501-14.1097231 1.53561914-25.25238086 12.6782769-26.788 26.788-.05857898.5594227.12317362 1.1174032.5 1.535.38386008.4238449.92916712.6654366 1.501.665zm24.978-27c.0045791.00299533.0078082.00765964.009.013l-.031 11.175c-7.0226205 1.2861619-12.5145438 6.7872458-13.789 13.812l-11.18.006c1.43625584-13.1641564 11.8277078-23.56184545 24.991-25.006z"/><path id="Shape" d="m33.2.012c-.559545-.05974192-1.1179893.12216176-1.535.5-.4238449.38386008-.6654366.92916712-.665 1.501v11.167c.0071109.978272.7138902 1.8109911 1.678 1.977 6.1900429 1.1309935 11.0340065 5.9749571 12.165 12.165.1660089.9641098.998728 1.6708891 1.977 1.678h11.167c.5721034-.0008682 1.1170897-.2439321 1.5-.669.3766658-.4172895.5584156-.9748978.5-1.534-1.5368453-14.1082222-12.6786631-25.24920812-26.787-26.785zm24.787 26.988-11.175-.031c-1.2861619-7.0226205-6.7872458-12.5145438-13.812-13.789l-.006-11.18c13.1641564 1.43625584 23.5618454 11.8277078 25.006 24.991-.0029953.0045791-.0076596.0078082-.013.009z"/><path id="Path" d="m55.667 43.9c.2375946.1185238.5125715.1376915.7643122.0532778.2517407-.0844138.4595757-.2654783.5776878-.5032778 1.5997636-3.2103271 2.6088398-6.6823081 2.979-10.25.058579-.5594227-.1231736-1.1174032-.5-1.535-.3829103-.4250679-.9278966-.6681318-1.5-.669h-11.168c-.978272.0071109-1.8109911.7138902-1.977 1.678-1.1294983 6.1915943-5.9737774 11.0374662-12.165 12.169-.9641098.1660089-1.6708891.998728-1.678 1.977v11.167c.0008682.5721034.2439321 1.1170897.669 1.5.3655331.3287814.8393608.5114062 1.331.513.068841-.0000109.1376233-.0040176.206-.012 8.5465534-.9063033 16.2998587-5.4176348 21.311-12.4.321982-.4487314.2192313-1.073518-.2295-1.3955-.4487314-.321982-1.073518-.2192313-1.3955.2295-4.6750983 6.5185504-11.9141416 10.7272541-19.892 11.565l.031-11.175c7.0226205-1.2861619 12.5145438-6.7872458 13.789-13.812l11.18-.006c-.3468191 3.3276577-1.2891448 6.5658436-2.782 9.56-.119864.2378777-.1398692.5137468-.0555791.7664291.08429.2526823.2659086.4612935.5045791.5795709z"/><path id="Path" d="m22.293 37.707c.3904999.3903819 1.0235001.3903819 1.414 0l14-14c.3789722-.3923789.3735524-1.0160848-.0121814-1.4018186s-1.0094397-.3911536-1.4018186-.0121814l-14 14c-.3903819.3904999-.3903819 1.0235001 0 1.414z"/><path id="Shape" d="m25 28c1.6568542 0 3-1.3431458 3-3s-1.3431458-3-3-3-3 1.3431458-3 3 1.3431458 3 3 3zm0-4c.5522847 0 1 .4477153 1 1s-.4477153 1-1 1-1-.4477153-1-1 .4477153-1 1-1z"/><path id="Shape" d="m35 32c-1.6568542 0-3 1.3431458-3 3s1.3431458 3 3 3 3-1.3431458 3-3-1.3431458-3-3-3zm0 4c-.5522847 0-1-.4477153-1-1s.4477153-1 1-1 1 .4477153 1 1-.4477153 1-1 1z"/></g></g></svg>